<?xml version="1.0" standalone="no"?>
<!DOCTYPE svg PUBLIC "-//W3C//DTD SVG 20010904//EN"
 "http://www.w3.org/TR/2001/REC-SVG-20010904/DTD/svg10.dtd">
<svg version="1.0" xmlns="http://www.w3.org/2000/svg"
 width="8000.000000pt" height="4500.000000pt" viewBox="0 0 8000.000000 4500.000000"
 preserveAspectRatio="xMidYMid meet">

<g transform="translate(0.000000,4500.000000) scale(0.100000,-0.100000)"
fill="#000000" stroke="none">
<path d="M13960 30780 c-540 -481 -710 -642 -840 -797 -414 -494 -663 -1074
-730 -1697 -15 -143 -13 -489 5 -636 80 -683 381 -1310 875 -1824 92 -96 2192
-1969 3480 -3106 146 -128 286 -253 312 -277 l47 -43 -582 -517 c-1099 -976
-2790 -2474 -2977 -2637 -738 -644 -1130 -1418 -1176 -2316 -12 -250 28 -610
96 -866 126 -474 348 -894 671 -1269 131 -152 314 -325 832 -784 438 -389 500
-441 515 -429 18 14 194 169 202 179 5 5 1341 1192 2920 2594 371 329 677 601
680 605 3 3 248 222 545 486 296 263 617 548 712 633 l173 154 0 4168 0 4168
-222 199 c-123 109 -245 220 -273 246 -27 26 -171 153 -318 284 -371 328
-1580 1400 -3120 2769 -714 635 -1304 1156 -1310 1158 -7 2 -239 -198 -517
-445z"/>
<path d="M46320 27874 c-14 -2 -59 -9 -100 -15 -169 -24 -307 -72 -392 -137
-54 -40 -144 -145 -201 -232 -25 -40 -590 -1533 -2008 -5310 -1084 -2890
-1974 -5263 -1977 -5272 -4 -17 57 -18 1180 -18 l1184 0 441 1278 c444 1283
702 2074 858 2622 56 198 312 974 780 2370 384 1141 700 2078 704 2083 6 6
1323 -3850 1333 -3903 3 -13 -42 -16 -337 -21 -356 -6 -428 -14 -546 -58 -80
-30 -137 -71 -217 -155 -77 -81 -158 -209 -191 -302 -15 -43 -368 -1137 -435
-1351 l-7 -23 1172 -2 1172 -3 437 -1265 437 -1265 1232 -3 c985 -2 1232 0
1228 10 -2 7 -926 2468 -2052 5468 -1126 3000 -2052 5467 -2057 5483 l-10 27
-801 -1 c-441 -1 -813 -3 -827 -5z"/>
<path d="M53310 22385 l0 -5495 2163 0 c1269 0 2263 4 2407 10 788 32 1367
147 1922 380 741 312 1267 799 1543 1430 245 561 347 1361 255 2001 -123 853
-556 1435 -1442 1939 -71 40 -128 74 -128 75 0 2 44 28 98 59 375 211 640 443
823 715 176 262 303 612 366 1011 22 144 26 672 5 840 -49 398 -134 721 -256
975 -253 525 -721 926 -1376 1182 -515 201 -934 288 -1720 355 -95 8 -811 12
-2397 15 l-2263 4 0 -5496z m4440 3672 c411 -47 684 -122 894 -245 103 -60
245 -201 301 -297 126 -217 173 -436 162 -755 -8 -236 -40 -395 -115 -567
-140 -325 -390 -516 -788 -603 -257 -56 -206 -54 -1486 -57 l-1188 -4 0 1276
0 1276 1038 -4 c880 -3 1059 -6 1182 -20z m380 -4400 c345 -46 592 -125 780
-249 139 -92 281 -263 365 -441 194 -411 191 -1107 -8 -1502 -57 -115 -110
-188 -204 -286 -256 -266 -618 -409 -1188 -470 -75 -8 -465 -13 -1227 -16
l-1118 -5 0 1497 0 1496 1238 -4 c1083 -3 1253 -6 1362 -20z"/>
<path d="M24620 22778 c0 -3325 4 -5117 10 -5163 33 -231 119 -413 257 -547
147 -142 326 -208 566 -208 379 0 686 117 918 349 101 101 -46 -120 1549 2319
652 996 1188 1811 1192 1809 4 -1 693 -1005 1530 -2232 l1524 -2230 1312 -3
c722 -1 1312 0 1312 2 0 3 -1019 1392 -2266 3087 -1246 1695 -2263 3087 -2261
3093 3 6 738 1087 1634 2401 896 1315 1632 2396 1637 2403 6 10 -156 12 -876
10 -862 -4 -886 -4 -993 -26 -126 -25 -244 -61 -313 -96 -126 -64 -289 -206
-383 -331 -25 -33 -1030 -1605 -2235 -3493 l-2189 -3434 -3 3691 -2 3691 -960
0 -960 0 0 -5092z"/>
<path d="M36030 22380 l0 -5490 2450 0 2450 0 0 960 0 960 -1495 0 -1495 0 0
4530 0 4530 -955 0 -955 0 0 -5490z"/>
<path d="M62592 22383 l3 -5488 3243 -3 3242 -2 0 960 0 960 -2280 0 -2280 0
0 1350 0 1350 1995 0 1995 0 0 950 0 950 -1995 0 -1995 0 0 1275 0 1275 2005
0 2006 0 78 78 c162 161 285 395 336 642 43 207 69 633 59 973 l-7 217 -3204
0 -3203 0 2 -5487z"/>
</g>
</svg>
