<?xml version="1.0" encoding="UTF-8"?>
<svg xmlns="http://www.w3.org/2000/svg" xmlns:xlink="http://www.w3.org/1999/xlink" width="154px" height="57px" viewBox="0 0 154 57" version="1.1">
<g id="surface1">
<path style=" stroke:none;fill-rule:nonzero;fill:rgb(0%,0%,0%);fill-opacity:1;" d="M 26.871094 18.011719 C 25.832031 18.621094 25.507812 18.824219 25.257812 19.023438 C 24.460938 19.648438 23.980469 20.382812 23.851562 21.171875 C 23.820312 21.351562 23.824219 21.789062 23.859375 21.976562 C 24.015625 22.84375 24.59375 23.636719 25.542969 24.285156 C 25.722656 24.410156 29.765625 26.78125 32.242188 28.222656 C 32.523438 28.382812 32.792969 28.542969 32.84375 28.570312 L 32.933594 28.625 L 31.816406 29.28125 C 29.699219 30.519531 26.445312 32.414062 26.082031 32.621094 C 24.664062 33.4375 23.910156 34.417969 23.820312 35.554688 C 23.796875 35.871094 23.875 36.328125 24.003906 36.652344 C 24.246094 37.253906 24.675781 37.785156 25.296875 38.257812 C 25.546875 38.453125 25.902344 38.671875 26.898438 39.253906 C 27.742188 39.746094 27.859375 39.8125 27.890625 39.796875 C 27.925781 39.777344 28.261719 39.582031 28.277344 39.570312 C 28.289062 39.5625 30.859375 38.058594 33.898438 36.285156 C 34.613281 35.867188 35.203125 35.523438 35.207031 35.515625 C 35.214844 35.511719 35.6875 35.234375 36.257812 34.902344 C 36.828125 34.570312 37.445312 34.207031 37.628906 34.101562 L 37.960938 33.90625 L 37.960938 23.347656 L 37.535156 23.09375 C 37.296875 22.957031 37.0625 22.816406 37.007812 22.78125 C 36.957031 22.75 36.679688 22.589844 36.394531 22.421875 C 35.683594 22.007812 33.355469 20.648438 30.390625 18.914062 C 29.015625 18.109375 27.878906 17.449219 27.867188 17.449219 C 27.855469 17.445312 27.40625 17.699219 26.871094 18.011719 Z M 26.871094 18.011719 "/>
<path style=" stroke:none;fill-rule:nonzero;fill:rgb(0%,0%,0%);fill-opacity:1;" d="M 89.164062 21.691406 C 89.140625 21.695312 89.050781 21.703125 88.972656 21.710938 C 88.648438 21.742188 88.382812 21.804688 88.21875 21.886719 C 88.113281 21.9375 87.941406 22.070312 87.832031 22.179688 C 87.785156 22.230469 86.695312 24.121094 83.964844 28.90625 C 81.878906 32.566406 80.167969 35.570312 80.160156 35.582031 C 80.152344 35.605469 80.269531 35.605469 82.433594 35.605469 L 84.710938 35.605469 L 85.558594 33.988281 C 86.414062 32.363281 86.910156 31.359375 87.210938 30.664062 C 87.320312 30.414062 87.8125 29.433594 88.714844 27.664062 C 89.453125 26.21875 90.0625 25.03125 90.070312 25.027344 C 90.082031 25.019531 92.617188 29.902344 92.636719 29.96875 C 92.640625 29.984375 92.554688 29.988281 91.984375 29.996094 C 91.300781 30.003906 91.164062 30.011719 90.933594 30.070312 C 90.78125 30.105469 90.671875 30.160156 90.515625 30.265625 C 90.367188 30.367188 90.214844 30.53125 90.148438 30.648438 C 90.121094 30.703125 89.441406 32.089844 89.3125 32.359375 L 89.296875 32.386719 L 93.8125 32.394531 L 94.652344 33.996094 L 95.492188 35.601562 L 97.863281 35.601562 C 99.761719 35.605469 100.238281 35.601562 100.230469 35.589844 C 100.226562 35.582031 98.445312 32.464844 96.277344 28.664062 C 94.109375 24.863281 92.328125 21.738281 92.320312 21.71875 L 92.300781 21.683594 L 90.757812 21.6875 C 89.910156 21.6875 89.191406 21.691406 89.164062 21.691406 Z M 89.164062 21.691406 "/>
<path style=" stroke:none;fill-rule:nonzero;fill:rgb(0%,0%,0%);fill-opacity:1;" d="M 102.621094 28.644531 L 102.621094 35.605469 L 106.785156 35.605469 C 109.226562 35.605469 111.140625 35.601562 111.417969 35.59375 C 112.9375 35.554688 114.050781 35.40625 115.117188 35.113281 C 116.546875 34.71875 117.558594 34.101562 118.089844 33.300781 C 118.5625 32.589844 118.757812 31.578125 118.578125 30.765625 C 118.34375 29.6875 117.507812 28.949219 115.804688 28.308594 C 115.667969 28.257812 115.558594 28.214844 115.558594 28.214844 C 115.558594 28.210938 115.640625 28.179688 115.746094 28.140625 C 116.46875 27.871094 116.976562 27.578125 117.332031 27.234375 C 117.667969 26.902344 117.914062 26.460938 118.035156 25.953125 C 118.078125 25.773438 118.085938 25.101562 118.042969 24.890625 C 117.949219 24.386719 117.785156 23.976562 117.550781 23.65625 C 117.066406 22.988281 116.164062 22.480469 114.902344 22.15625 C 113.910156 21.902344 113.105469 21.792969 111.59375 21.707031 C 111.410156 21.699219 110.03125 21.691406 106.976562 21.6875 L 102.621094 21.683594 Z M 111.167969 23.996094 C 111.960938 24.054688 112.484375 24.148438 112.890625 24.304688 C 113.089844 24.378906 113.359375 24.558594 113.46875 24.679688 C 113.710938 24.957031 113.800781 25.234375 113.78125 25.636719 C 113.765625 25.9375 113.703125 26.136719 113.558594 26.355469 C 113.289062 26.765625 112.808594 27.007812 112.042969 27.121094 C 111.546875 27.191406 111.644531 27.1875 109.183594 27.191406 L 106.894531 27.195312 L 106.894531 23.964844 L 108.894531 23.96875 C 110.585938 23.972656 110.933594 23.976562 111.167969 23.996094 Z M 111.898438 29.566406 C 112.5625 29.625 113.039062 29.726562 113.402344 29.882812 C 113.667969 30 113.941406 30.214844 114.105469 30.441406 C 114.476562 30.960938 114.472656 31.84375 114.089844 32.34375 C 113.980469 32.488281 113.878906 32.582031 113.695312 32.707031 C 113.203125 33.042969 112.507812 33.226562 111.410156 33.300781 C 111.265625 33.3125 110.515625 33.320312 109.046875 33.320312 L 106.894531 33.328125 L 106.894531 29.539062 L 109.277344 29.542969 C 111.363281 29.546875 111.691406 29.550781 111.898438 29.566406 Z M 111.898438 29.566406 "/>
<path style=" stroke:none;fill-rule:nonzero;fill:rgb(0%,0%,0%);fill-opacity:1;" d="M 47.394531 28.148438 C 47.394531 32.359375 47.402344 34.628906 47.414062 34.6875 C 47.476562 34.980469 47.640625 35.210938 47.90625 35.378906 C 48.191406 35.558594 48.535156 35.644531 48.996094 35.644531 C 49.726562 35.644531 50.316406 35.496094 50.765625 35.203125 C 50.957031 35.074219 50.675781 35.355469 53.746094 32.265625 C 55 31.003906 56.03125 29.96875 56.039062 29.972656 C 56.046875 29.972656 57.375 31.246094 58.984375 32.800781 L 61.917969 35.625 L 64.445312 35.628906 C 65.835938 35.628906 66.972656 35.628906 66.972656 35.625 C 66.972656 35.621094 65.007812 33.863281 62.609375 31.714844 C 60.210938 29.570312 58.253906 27.804688 58.257812 27.796875 C 58.261719 27.789062 59.675781 26.421875 61.402344 24.757812 C 63.125 23.089844 64.542969 21.722656 64.554688 21.714844 C 64.566406 21.699219 64.253906 21.699219 62.867188 21.699219 C 61.207031 21.707031 61.160156 21.707031 60.957031 21.734375 C 60.710938 21.765625 60.484375 21.8125 60.351562 21.855469 C 60.109375 21.9375 59.796875 22.117188 59.617188 22.273438 C 59.566406 22.316406 57.632812 24.308594 55.3125 26.699219 L 51.097656 31.046875 L 51.09375 26.375 L 51.089844 21.699219 L 47.394531 21.699219 Z M 47.394531 28.148438 "/>
<path style=" stroke:none;fill-rule:nonzero;fill:rgb(0%,0%,0%);fill-opacity:1;" d="M 69.359375 28.652344 L 69.359375 35.605469 L 78.789062 35.605469 L 78.789062 33.175781 L 73.035156 33.175781 L 73.035156 21.699219 L 69.359375 21.699219 Z M 69.359375 28.652344 "/>
<path style=" stroke:none;fill-rule:nonzero;fill:rgb(0%,0%,0%);fill-opacity:1;" d="M 120.488281 28.648438 L 120.496094 35.601562 L 126.738281 35.601562 L 132.980469 35.605469 L 132.980469 33.175781 L 124.199219 33.175781 L 124.199219 29.753906 L 131.882812 29.753906 L 131.882812 27.347656 L 124.199219 27.347656 L 124.199219 24.117188 L 131.921875 24.117188 L 132.074219 24.019531 C 132.382812 23.816406 132.621094 23.519531 132.71875 23.207031 C 132.800781 22.941406 132.851562 22.402344 132.832031 21.972656 L 132.820312 21.699219 L 120.484375 21.699219 Z M 120.488281 28.648438 "/>
</g>
</svg>
