<?xml version="1.0" encoding="UTF-8"?>
<svg xmlns="http://www.w3.org/2000/svg" xmlns:xlink="http://www.w3.org/1999/xlink" viewBox="0 0 1360.9 423.94">
  <defs>
    <style>
      .cls-1 {
        fill: url(#Degradado_sin_nombre_59);
      }

      .cls-1, .cls-2, .cls-3, .cls-4, .cls-5 {
        stroke-width: 0px;
      }

      .cls-2 {
        fill: url(#linear-gradient);
        mix-blend-mode: multiply;
        opacity: .37;
      }

      .cls-3 {
        fill: url(#radial-gradient);
        mix-blend-mode: overlay;
      }

      .cls-4 {
        fill: url(#linear-gradient-2);
      }

      .cls-6 {
        isolation: isolate;
      }

      .cls-5 {
        fill: #262e63;
      }
    </style>
    <linearGradient id="linear-gradient" x1="129.79" y1="83.5" x2="96.04" y2="193.79" gradientUnits="userSpaceOnUse">
      <stop offset="0" stop-color="#cfd1d2"/>
      <stop offset="1" stop-color="#fff"/>
    </linearGradient>
    <linearGradient id="linear-gradient-2" x1="0" y1="256.68" x2="257" y2="256.68" gradientUnits="userSpaceOnUse">
      <stop offset="0" stop-color="#8f1861"/>
      <stop offset=".47" stop-color="#e62272"/>
      <stop offset="1" stop-color="#f5c058"/>
    </linearGradient>
    <radialGradient id="radial-gradient" cx="83.93" cy="256.68" fx="83.93" fy="256.68" r="234.07" gradientUnits="userSpaceOnUse">
      <stop offset="0" stop-color="#fff"/>
      <stop offset="1" stop-color="#221e20"/>
    </radialGradient>
    <linearGradient id="Degradado_sin_nombre_59" data-name="Degradado sin nombre 59" x1="0" y1="105.99" x2="157.53" y2="105.99" gradientUnits="userSpaceOnUse">
      <stop offset="0" stop-color="#283484"/>
      <stop offset=".97" stop-color="#427fc0"/>
    </linearGradient>
  </defs>
  <g class="cls-6">
    <g id="Capa_1" data-name="Capa 1">
      <path class="cls-2" d="m101.37,43.44c6.92,29.1,9.8,71.44-20.44,98.29-7.64,6.78-15.07,13.38-22.2,19.71l54.81,48.68s10.89-9.58,18.99-16.78c32.95-29.26,26.58-76.91,18.5-105.78l-49.68-44.12Z"/>
      <path class="cls-4" d="m132.54,195.2c-49.34,43.82-90.4,80.19-91.1,80.82l-15,13.32c-35.25,31.3-35.25,82.05,0,113.34l23.94,21.26,183.96-163.37c15.04-13.36,22.6-30.85,22.67-48.36v-.49c-.07-17.51-7.62-34.99-22.67-48.35l-83.28-73.96c8.07,28.87,14.45,76.52-18.5,105.78"/>
      <path class="cls-3" d="m36.76,402.68c-35.25-31.3-35.25-82.04,0-113.34l15-13.32c.7-.63,41.76-37,91.1-80.82,28.8-25.57,27.56-65.19,21.4-94.04l-13.22-11.74c8.07,28.87,14.45,76.52-18.5,105.78-49.34,43.82-90.4,80.19-91.1,80.82l-15,13.32c-35.25,31.3-35.25,82.05,0,113.34l23.94,21.26,5.16-4.58-18.77-16.68Z"/>
      <path class="cls-1" d="m50.37,0l-23.94,21.26c-35.25,31.3-35.25,82.05,0,113.34l87.12,77.37s10.89-9.58,18.99-16.78c32.95-29.26,26.58-76.91,18.5-105.78L50.37,0Z"/>
      <path class="cls-5" d="m401.65,237.24l-61.7,94.31c-6.44,10.1-16.27,13.47-26.44,13.47-11.86,0-19.66-8.76-19.66-22.57V80.62h46.1v177.51l104.89-164.45s3.26-5.66,9.92-9.56c5.95-3.49,16.88-3.5,16.88-3.5h36.45l-78.99,115.87,108.89,148.13h-63l-73.35-107.37Z"/>
      <path class="cls-5" d="m567.76,344.18V80.62h45.77v217.61h71.87v45.95h-117.63Z"/>
      <path class="cls-5" d="m982.44,80.48h94.92c19.45,0,35.51,1.85,48.2,5.54,12.68,3.69,22.72,8.74,30.1,15.14,7.39,6.41,12.49,13.91,15.33,22.53,2.83,8.62,4.25,17.98,4.25,28.07s-2.22,20.07-6.65,29.18c-4.43,9.11-12.8,16.87-25.11,23.27,7.88,4.19,14.34,8.56,19.39,13.11,5.04,4.56,8.99,9.42,11.82,14.59,2.83,5.17,4.8,10.47,5.91,15.88,1.11,5.42,1.66,10.84,1.66,16.25,0,11.08-1.66,21.55-4.99,31.39-3.32,9.85-8.86,18.34-16.62,25.48-7.75,7.14-17.91,12.81-30.47,16.99-12.56,4.19-28.07,6.28-46.54,6.28h-101.2V80.48Zm101.2,104.52c14.53,0,24.5-2.71,29.92-8.13,5.41-5.41,8.13-13.17,8.13-23.27,0-10.83-3.51-18.52-10.53-23.08-7.02-4.55-18.9-6.83-35.64-6.83h-39.89v61.31h48.01Zm-1.85,115.97c9.1,0,16.68-.86,22.71-2.59,6.03-1.72,10.89-4.25,14.59-7.57,3.69-3.32,6.28-7.2,7.76-11.63,1.48-4.43,2.21-9.48,2.21-15.14,0-11.32-3.08-19.94-9.23-25.85-6.16-5.91-16.99-8.86-32.5-8.86h-51.71v71.65h46.17Z"/>
      <path class="cls-5" d="m804.23,83.36c4.77-2.59,12.95-2.87,12.95-2.87h36.52l98.98,263.7h-59.09l-21.05-60.94h-56.19l10.71-33.31s2.37-5.98,7.22-9.34c4.3-2.98,12.18-2.58,12.18-2.58l11.68-.2s-21.42-63.03-32.13-94.55l-33.8,100.61-3.64,12.91-8.36,26.45-21.05,60.94h-56.88l95.08-253.32s3.53-5.69,6.87-7.51Z"/>
      <path class="cls-5" d="m1360.9,344.18h-155.64V80.62h153.61s1,14.05-.75,26.27c-1.99,13.86-10.61,19.68-10.61,19.68h-96.14v61.16h95.97v45.62h-95.97v64.88h109.54v45.95Z"/>
    </g>
  </g>
</svg>